<svg xmlns="http://www.w3.org/2000/svg" version="1.1" xmlns:xlink="http://www.w3.org/1999/xlink" xmlns:svgjs="http://svgjs.com/svgjs" width="1440" height="560" preserveAspectRatio="none" viewBox="0 0 1440 560"><g mask="url(&quot;#SvgjsMask1031&quot;)" fill="none"><rect width="1440" height="560" x="0" y="0" fill="#0e2a47"></rect><path d="M-45.98 339.4L-45.98 339.4" stroke="#132e65" stroke-width="1.5"></path><path d="M-45.98 339.4L64.63 407.25" stroke="#132e65" stroke-width="1.5"></path><path d="M-45.98 339.4L-70.19 506.16" stroke="#132e65" stroke-width="1.5"></path><path d="M-45.98 339.4L68.3 561.37" stroke="#132e65" stroke-width="1.5"></path><path d="M-45.98 339.4L242.21 376.48" stroke="#132e65" stroke-width="1.5"></path><path d="M-45.98 339.4L200.06 513.19" stroke="#132e65" stroke-width="1.5"></path><path d="M-70.19 506.16L-70.19 506.16" stroke="#132e65" stroke-width="1.5"></path><path d="M-70.19 506.16L68.3 561.37" stroke="#132e65" stroke-width="1.5"></path><path d="M-109.9 654.52L-109.9 654.52" stroke="#132e65" stroke-width="1.5"></path><path d="M-109.9 654.52L-70.19 506.16" stroke="#132e65" stroke-width="1.5"></path><path d="M64.63 407.25L64.63 407.25" stroke="#132e65" stroke-width="1.5"></path><path d="M64.63 407.25L68.3 561.37" stroke="#132e65" stroke-width="1.5"></path><path d="M64.63 407.25L-70.19 506.16" stroke="#132e65" stroke-width="1.5"></path><path d="M68.3 561.37L68.3 561.37" stroke="#132e65" stroke-width="1.5"></path><path d="M68.3 561.37L66.11 681.93" stroke="#132e65" stroke-width="1.5"></path><path d="M68.3 561.37L200.06 513.19" stroke="#132e65" stroke-width="1.5"></path><path d="M66.11 681.93L66.11 681.93" stroke="#132e65" stroke-width="1.5"></path><path d="M242.21 376.48L242.21 376.48" stroke="#132e65" stroke-width="1.5"></path><path d="M242.21 376.48L200.06 513.19" stroke="#132e65" stroke-width="1.5"></path><path d="M242.21 376.48L388.44 386.52" stroke="#132e65" stroke-width="1.5"></path><path d="M242.21 376.48L64.63 407.25" stroke="#132e65" stroke-width="1.5"></path><path d="M242.21 376.48L372.61 562.17" stroke="#132e65" stroke-width="1.5"></path><path d="M200.06 513.19L200.06 513.19" stroke="#132e65" stroke-width="1.5"></path><path d="M200.75 661.43L200.75 661.43" stroke="#132e65" stroke-width="1.5"></path><path d="M200.75 661.43L66.11 681.93" stroke="#132e65" stroke-width="1.5"></path><path d="M200.75 661.43L200.06 513.19" stroke="#132e65" stroke-width="1.5"></path><path d="M200.75 661.43L348 696.59" stroke="#132e65" stroke-width="1.5"></path><path d="M388.44 386.52L388.44 386.52" stroke="#132e65" stroke-width="1.5"></path><path d="M388.44 386.52L509.78 339.13" stroke="#132e65" stroke-width="1.5"></path><path d="M388.44 386.52L372.61 562.17" stroke="#132e65" stroke-width="1.5"></path><path d="M372.61 562.17L372.61 562.17" stroke="#132e65" stroke-width="1.5"></path><path d="M372.61 562.17L348 696.59" stroke="#132e65" stroke-width="1.5"></path><path d="M348 696.59L348 696.59" stroke="#132e65" stroke-width="1.5"></path><path d="M509.78 339.13L509.78 339.13" stroke="#132e65" stroke-width="1.5"></path><path d="M509.78 339.13L551.67 534.05" stroke="#132e65" stroke-width="1.5"></path><path d="M509.78 339.13L706.41 384.07" stroke="#132e65" stroke-width="1.5"></path><path d="M509.78 339.13L372.61 562.17" stroke="#132e65" stroke-width="1.5"></path><path d="M551.67 534.05L551.67 534.05" stroke="#132e65" stroke-width="1.5"></path><path d="M551.67 534.05L524.26 644.74" stroke="#132e65" stroke-width="1.5"></path><path d="M524.26 644.74L524.26 644.74" stroke="#132e65" stroke-width="1.5"></path><path d="M524.26 644.74L667.95 666.43" stroke="#132e65" stroke-width="1.5"></path><path d="M524.26 644.74L372.61 562.17" stroke="#132e65" stroke-width="1.5"></path><path d="M524.26 644.74L348 696.59" stroke="#132e65" stroke-width="1.5"></path><path d="M524.26 644.74L694.3 543.97" stroke="#132e65" stroke-width="1.5"></path><path d="M706.41 384.07L706.41 384.07" stroke="#132e65" stroke-width="1.5"></path><path d="M706.41 384.07L826.61 374.4" stroke="#132e65" stroke-width="1.5"></path><path d="M706.41 384.07L796.55 496.1" stroke="#132e65" stroke-width="1.5"></path><path d="M694.3 543.97L694.3 543.97" stroke="#132e65" stroke-width="1.5"></path><path d="M694.3 543.97L796.55 496.1" stroke="#132e65" stroke-width="1.5"></path><path d="M694.3 543.97L667.95 666.43" stroke="#132e65" stroke-width="1.5"></path><path d="M694.3 543.97L551.67 534.05" stroke="#132e65" stroke-width="1.5"></path><path d="M694.3 543.97L706.41 384.07" stroke="#132e65" stroke-width="1.5"></path><path d="M694.3 543.97L839.93 649.03" stroke="#132e65" stroke-width="1.5"></path><path d="M667.95 666.43L667.95 666.43" stroke="#132e65" stroke-width="1.5"></path><path d="M667.95 666.43L839.93 649.03" stroke="#132e65" stroke-width="1.5"></path><path d="M667.95 666.43L551.67 534.05" stroke="#132e65" stroke-width="1.5"></path><path d="M667.95 666.43L796.55 496.1" stroke="#132e65" stroke-width="1.5"></path><path d="M667.95 666.43L948.9 678.45" stroke="#132e65" stroke-width="1.5"></path><path d="M845.48 227.2L845.48 227.2" stroke="#132e65" stroke-width="1.5"></path><path d="M845.48 227.2L826.61 374.4" stroke="#132e65" stroke-width="1.5"></path><path d="M845.48 227.2L994.53 230.71" stroke="#132e65" stroke-width="1.5"></path><path d="M845.48 227.2L938.3 96.93" stroke="#132e65" stroke-width="1.5"></path><path d="M845.48 227.2L706.41 384.07" stroke="#132e65" stroke-width="1.5"></path><path d="M845.48 227.2L1003.06 398.43" stroke="#132e65" stroke-width="1.5"></path><path d="M826.61 374.4L826.61 374.4" stroke="#132e65" stroke-width="1.5"></path><path d="M826.61 374.4L796.55 496.1" stroke="#132e65" stroke-width="1.5"></path><path d="M796.55 496.1L796.55 496.1" stroke="#132e65" stroke-width="1.5"></path><path d="M796.55 496.1L952.45 509.85" stroke="#132e65" stroke-width="1.5"></path><path d="M839.93 649.03L839.93 649.03" stroke="#132e65" stroke-width="1.5"></path><path d="M839.93 649.03L948.9 678.45" stroke="#132e65" stroke-width="1.5"></path><path d="M839.93 649.03L796.55 496.1" stroke="#132e65" stroke-width="1.5"></path><path d="M839.93 649.03L952.45 509.85" stroke="#132e65" stroke-width="1.5"></path><path d="M951.09 -99.85L951.09 -99.85" stroke="#132e65" stroke-width="1.5"></path><path d="M951.09 -99.85L1138.96 -81.73" stroke="#132e65" stroke-width="1.5"></path><path d="M951.09 -99.85L938.3 96.93" stroke="#132e65" stroke-width="1.5"></path><path d="M951.09 -99.85L1092.26 105.34" stroke="#132e65" stroke-width="1.5"></path><path d="M951.09 -99.85L1275.13 -55.86" stroke="#132e65" stroke-width="1.5"></path><path d="M951.09 -99.85L994.53 230.71" stroke="#132e65" stroke-width="1.5"></path><path d="M938.3 96.93L938.3 96.93" stroke="#132e65" stroke-width="1.5"></path><path d="M938.3 96.93L994.53 230.71" stroke="#132e65" stroke-width="1.5"></path><path d="M938.3 96.93L1092.26 105.34" stroke="#132e65" stroke-width="1.5"></path><path d="M994.53 230.71L994.53 230.71" stroke="#132e65" stroke-width="1.5"></path><path d="M994.53 230.71L1116.32 212.18" stroke="#132e65" stroke-width="1.5"></path><path d="M1003.06 398.43L1003.06 398.43" stroke="#132e65" stroke-width="1.5"></path><path d="M1003.06 398.43L1094.83 397.86" stroke="#132e65" stroke-width="1.5"></path><path d="M952.45 509.85L952.45 509.85" stroke="#132e65" stroke-width="1.5"></path><path d="M952.45 509.85L1003.06 398.43" stroke="#132e65" stroke-width="1.5"></path><path d="M952.45 509.85L948.9 678.45" stroke="#132e65" stroke-width="1.5"></path><path d="M952.45 509.85L1094.83 397.86" stroke="#132e65" stroke-width="1.5"></path><path d="M952.45 509.85L826.61 374.4" stroke="#132e65" stroke-width="1.5"></path><path d="M948.9 678.45L948.9 678.45" stroke="#132e65" stroke-width="1.5"></path><path d="M948.9 678.45L1148.64 673.82" stroke="#132e65" stroke-width="1.5"></path><path d="M1138.96 -81.73L1138.96 -81.73" stroke="#132e65" stroke-width="1.5"></path><path d="M1138.96 -81.73L1275.13 -55.86" stroke="#132e65" stroke-width="1.5"></path><path d="M1138.96 -81.73L1092.26 105.34" stroke="#132e65" stroke-width="1.5"></path><path d="M1138.96 -81.73L1282.35 53.47" stroke="#132e65" stroke-width="1.5"></path><path d="M1138.96 -81.73L1391.6 -98.1" stroke="#132e65" stroke-width="1.5"></path><path d="M1138.96 -81.73L938.3 96.93" stroke="#132e65" stroke-width="1.5"></path><path d="M1092.26 105.34L1092.26 105.34" stroke="#132e65" stroke-width="1.5"></path><path d="M1092.26 105.34L1116.32 212.18" stroke="#132e65" stroke-width="1.5"></path><path d="M1116.32 212.18L1116.32 212.18" stroke="#132e65" stroke-width="1.5"></path><path d="M1116.32 212.18L1282.47 191.03" stroke="#132e65" stroke-width="1.5"></path><path d="M1116.32 212.18L1094.83 397.86" stroke="#132e65" stroke-width="1.5"></path><path d="M1116.32 212.18L938.3 96.93" stroke="#132e65" stroke-width="1.5"></path><path d="M1116.32 212.18L1003.06 398.43" stroke="#132e65" stroke-width="1.5"></path><path d="M1094.83 397.86L1094.83 397.86" stroke="#132e65" stroke-width="1.5"></path><path d="M1094.83 397.86L1141.62 522.44" stroke="#132e65" stroke-width="1.5"></path><path d="M1094.83 397.86L1266.35 379.99" stroke="#132e65" stroke-width="1.5"></path><path d="M1141.62 522.44L1141.62 522.44" stroke="#132e65" stroke-width="1.5"></path><path d="M1141.62 522.44L1268.39 553.57" stroke="#132e65" stroke-width="1.5"></path><path d="M1141.62 522.44L1148.64 673.82" stroke="#132e65" stroke-width="1.5"></path><path d="M1141.62 522.44L1003.06 398.43" stroke="#132e65" stroke-width="1.5"></path><path d="M1141.62 522.44L1266.35 379.99" stroke="#132e65" stroke-width="1.5"></path><path d="M1148.64 673.82L1148.64 673.82" stroke="#132e65" stroke-width="1.5"></path><path d="M1148.64 673.82L1265.89 708.03" stroke="#132e65" stroke-width="1.5"></path><path d="M1148.64 673.82L1268.39 553.57" stroke="#132e65" stroke-width="1.5"></path><path d="M1148.64 673.82L952.45 509.85" stroke="#132e65" stroke-width="1.5"></path><path d="M1148.64 673.82L1094.83 397.86" stroke="#132e65" stroke-width="1.5"></path><path d="M1275.13 -55.86L1275.13 -55.86" stroke="#132e65" stroke-width="1.5"></path><path d="M1275.13 -55.86L1282.35 53.47" stroke="#132e65" stroke-width="1.5"></path><path d="M1275.13 -55.86L1391.6 -98.1" stroke="#132e65" stroke-width="1.5"></path><path d="M1275.13 -55.86L1446.69 107.78" stroke="#132e65" stroke-width="1.5"></path><path d="M1282.35 53.47L1282.35 53.47" stroke="#132e65" stroke-width="1.5"></path><path d="M1282.35 53.47L1282.47 191.03" stroke="#132e65" stroke-width="1.5"></path><path d="M1282.35 53.47L1446.69 107.78" stroke="#132e65" stroke-width="1.5"></path><path d="M1282.35 53.47L1391.6 -98.1" stroke="#132e65" stroke-width="1.5"></path><path d="M1282.35 53.47L1092.26 105.34" stroke="#132e65" stroke-width="1.5"></path><path d="M1282.47 191.03L1282.47 191.03" stroke="#132e65" stroke-width="1.5"></path><path d="M1282.47 191.03L1446.69 107.78" stroke="#132e65" stroke-width="1.5"></path><path d="M1282.47 191.03L1266.35 379.99" stroke="#132e65" stroke-width="1.5"></path><path d="M1282.47 191.03L1092.26 105.34" stroke="#132e65" stroke-width="1.5"></path><path d="M1282.47 191.03L1451.61 362.68" stroke="#132e65" stroke-width="1.5"></path><path d="M1266.35 379.99L1266.35 379.99" stroke="#132e65" stroke-width="1.5"></path><path d="M1266.35 379.99L1268.39 553.57" stroke="#132e65" stroke-width="1.5"></path><path d="M1268.39 553.57L1268.39 553.57" stroke="#132e65" stroke-width="1.5"></path><path d="M1268.39 553.57L1265.89 708.03" stroke="#132e65" stroke-width="1.5"></path><path d="M1268.39 553.57L1455.59 537" stroke="#132e65" stroke-width="1.5"></path><path d="M1265.89 708.03L1265.89 708.03" stroke="#132e65" stroke-width="1.5"></path><path d="M1391.6 -98.1L1391.6 -98.1" stroke="#132e65" stroke-width="1.5"></path><path d="M1391.6 -98.1L1446.69 107.78" stroke="#132e65" stroke-width="1.5"></path><path d="M1391.6 -98.1L1607.18 -37.82" stroke="#132e65" stroke-width="1.5"></path><path d="M1391.6 -98.1L1573.83 92.49" stroke="#132e65" stroke-width="1.5"></path><path d="M1446.69 107.78L1446.69 107.78" stroke="#132e65" stroke-width="1.5"></path><path d="M1446.69 107.78L1573.83 92.49" stroke="#132e65" stroke-width="1.5"></path><path d="M1451.61 362.68L1451.61 362.68" stroke="#132e65" stroke-width="1.5"></path><path d="M1451.61 362.68L1545.05 390.56" stroke="#132e65" stroke-width="1.5"></path><path d="M1451.61 362.68L1455.59 537" stroke="#132e65" stroke-width="1.5"></path><path d="M1451.61 362.68L1266.35 379.99" stroke="#132e65" stroke-width="1.5"></path><path d="M1451.61 362.68L1579.59 212.21" stroke="#132e65" stroke-width="1.5"></path><path d="M1455.59 537L1455.59 537" stroke="#132e65" stroke-width="1.5"></path><path d="M1455.59 537L1545.05 390.56" stroke="#132e65" stroke-width="1.5"></path><path d="M1455.59 537L1433.71 709.64" stroke="#132e65" stroke-width="1.5"></path><path d="M1433.71 709.64L1433.71 709.64" stroke="#132e65" stroke-width="1.5"></path><path d="M1433.71 709.64L1550.92 687.18" stroke="#132e65" stroke-width="1.5"></path><path d="M1433.71 709.64L1265.89 708.03" stroke="#132e65" stroke-width="1.5"></path><path d="M1607.18 -37.82L1607.18 -37.82" stroke="#132e65" stroke-width="1.5"></path><path d="M1607.18 -37.82L1573.83 92.49" stroke="#132e65" stroke-width="1.5"></path><path d="M1607.18 -37.82L1446.69 107.78" stroke="#132e65" stroke-width="1.5"></path><path d="M1607.18 -37.82L1579.59 212.21" stroke="#132e65" stroke-width="1.5"></path><path d="M1607.18 -37.82L1275.13 -55.86" stroke="#132e65" stroke-width="1.5"></path><path d="M1607.18 -37.82L1282.35 53.47" stroke="#132e65" stroke-width="1.5"></path><path d="M1573.83 92.49L1573.83 92.49" stroke="#132e65" stroke-width="1.5"></path><path d="M1573.83 92.49L1579.59 212.21" stroke="#132e65" stroke-width="1.5"></path><path d="M1573.83 92.49L1282.35 53.47" stroke="#132e65" stroke-width="1.5"></path><path d="M1579.59 212.21L1579.59 212.21" stroke="#132e65" stroke-width="1.5"></path><path d="M1579.59 212.21L1446.69 107.78" stroke="#132e65" stroke-width="1.5"></path><path d="M1579.59 212.21L1545.05 390.56" stroke="#132e65" stroke-width="1.5"></path><path d="M1579.59 212.21L1282.47 191.03" stroke="#132e65" stroke-width="1.5"></path><path d="M1545.05 390.56L1545.05 390.56" stroke="#132e65" stroke-width="1.5"></path><path d="M1545.05 390.56L1266.35 379.99" stroke="#132e65" stroke-width="1.5"></path><path d="M1545.05 390.56L1550.92 687.18" stroke="#132e65" stroke-width="1.5"></path><path d="M1550.92 687.18L1550.92 687.18" stroke="#132e65" stroke-width="1.5"></path><path d="M1550.92 687.18L1455.59 537" stroke="#132e65" stroke-width="1.5"></path><path d="M1550.92 687.18L1265.89 708.03" stroke="#132e65" stroke-width="1.5"></path><path d="M1550.92 687.18L1268.39 553.57" stroke="#132e65" stroke-width="1.5"></path><circle r="5" cx="-45.98" cy="339.4" fill="#132e65"></circle><circle r="5" cx="-70.19" cy="506.16" fill="#132e65"></circle><circle r="5" cx="-109.9" cy="654.52" fill="#132e65"></circle><circle r="5" cx="64.63" cy="407.25" fill="#132e65"></circle><circle r="5" cx="68.3" cy="561.37" fill="#132e65"></circle><circle r="5" cx="66.11" cy="681.93" fill="#132e65"></circle><circle r="5" cx="242.21" cy="376.48" fill="#132e65"></circle><circle r="5" cx="200.06" cy="513.19" fill="#132e65"></circle><circle r="5" cx="200.75" cy="661.43" fill="#132e65"></circle><circle r="5" cx="388.44" cy="386.52" fill="#132e65"></circle><circle r="5" cx="372.61" cy="562.17" fill="#132e65"></circle><circle r="5" cx="348" cy="696.59" fill="#132e65"></circle><circle r="5" cx="509.78" cy="339.13" fill="#132e65"></circle><circle r="5" cx="551.67" cy="534.05" fill="#132e65"></circle><circle r="5" cx="524.26" cy="644.74" fill="#132e65"></circle><circle r="5" cx="706.41" cy="384.07" fill="#132e65"></circle><circle r="5" cx="694.3" cy="543.97" fill="#132e65"></circle><circle r="5" cx="667.95" cy="666.43" fill="#132e65"></circle><circle r="5" cx="845.48" cy="227.2" fill="#132e65"></circle><circle r="5" cx="826.61" cy="374.4" fill="#132e65"></circle><circle r="5" cx="796.55" cy="496.1" fill="#132e65"></circle><circle r="5" cx="839.93" cy="649.03" fill="#132e65"></circle><circle r="5" cx="951.09" cy="-99.85" fill="#132e65"></circle><circle r="5" cx="938.3" cy="96.93" fill="#132e65"></circle><circle r="5" cx="994.53" cy="230.71" fill="#132e65"></circle><circle r="5" cx="1003.06" cy="398.43" fill="#132e65"></circle><circle r="5" cx="952.45" cy="509.85" fill="#132e65"></circle><circle r="5" cx="948.9" cy="678.45" fill="#132e65"></circle><circle r="5" cx="1138.96" cy="-81.73" fill="#132e65"></circle><circle r="5" cx="1092.26" cy="105.34" fill="#132e65"></circle><circle r="5" cx="1116.32" cy="212.18" fill="#132e65"></circle><circle r="5" cx="1094.83" cy="397.86" fill="#132e65"></circle><circle r="5" cx="1141.62" cy="522.44" fill="#132e65"></circle><circle r="5" cx="1148.64" cy="673.82" fill="#132e65"></circle><circle r="5" cx="1275.13" cy="-55.86" fill="#132e65"></circle><circle r="5" cx="1282.35" cy="53.47" fill="#132e65"></circle><circle r="5" cx="1282.47" cy="191.03" fill="#132e65"></circle><circle r="5" cx="1266.35" cy="379.99" fill="#132e65"></circle><circle r="5" cx="1268.39" cy="553.57" fill="#132e65"></circle><circle r="5" cx="1265.89" cy="708.03" fill="#132e65"></circle><circle r="5" cx="1391.6" cy="-98.1" fill="#132e65"></circle><circle r="5" cx="1446.69" cy="107.78" fill="#132e65"></circle><circle r="5" cx="1451.61" cy="362.68" fill="#132e65"></circle><circle r="5" cx="1455.59" cy="537" fill="#132e65"></circle><circle r="5" cx="1433.71" cy="709.64" fill="#132e65"></circle><circle r="5" cx="1607.18" cy="-37.82" fill="#132e65"></circle><circle r="5" cx="1573.83" cy="92.49" fill="#132e65"></circle><circle r="5" cx="1579.59" cy="212.21" fill="#132e65"></circle><circle r="5" cx="1545.05" cy="390.56" fill="#132e65"></circle><circle r="5" cx="1550.92" cy="687.18" fill="#132e65"></circle><path d="M-40.66 646.71L-40.66 646.71" stroke="hsl(228.5, 77.2%, 51.5%)" stroke-width="1.5"></path><path d="M-40.66 646.71L61.53 690.6" stroke="hsl(228.5, 77.2%, 51.5%)" stroke-width="1.5"></path><path d="M-40.66 646.71L60.69 498.23" stroke="hsl(228.5, 77.2%, 51.5%)" stroke-width="1.5"></path><path d="M-40.66 646.71L193.07 689.57" stroke="hsl(228.5, 77.2%, 51.5%)" stroke-width="1.5"></path><path d="M-40.66 646.71L198.61 533.36" stroke="hsl(228.5, 77.2%, 51.5%)" stroke-width="1.5"></path><path d="M193.07 689.57L193.07 689.57" stroke="hsl(228.5, 77.2%, 51.5%)" stroke-width="1.5"></path><path d="M193.07 689.57L61.53 690.6" stroke="hsl(228.5, 77.2%, 51.5%)" stroke-width="1.5"></path><path d="M193.07 689.57L198.61 533.36" stroke="hsl(228.5, 77.2%, 51.5%)" stroke-width="1.5"></path><path d="M848.48 401.95L848.48 401.95" stroke="hsl(228.5, 77.2%, 51.5%)" stroke-width="1.5"></path><path d="M848.48 401.95L859.57 513.28" stroke="hsl(228.5, 77.2%, 51.5%)" stroke-width="1.5"></path><path d="M848.48 401.95L1005.16 402.29" stroke="hsl(228.5, 77.2%, 51.5%)" stroke-width="1.5"></path><path d="M1005.16 402.29L1005.16 402.29" stroke="hsl(228.5, 77.2%, 51.5%)" stroke-width="1.5"></path><path d="M1005.16 402.29L1093 360.09" stroke="hsl(228.5, 77.2%, 51.5%)" stroke-width="1.5"></path><path d="M1005.16 402.29L985.56 524.3" stroke="hsl(228.5, 77.2%, 51.5%)" stroke-width="1.5"></path><path d="M985.56 524.3L985.56 524.3" stroke="hsl(228.5, 77.2%, 51.5%)" stroke-width="1.5"></path><path d="M985.56 524.3L859.57 513.28" stroke="hsl(228.5, 77.2%, 51.5%)" stroke-width="1.5"></path><path d="M985.56 524.3L964.28 664.21" stroke="hsl(228.5, 77.2%, 51.5%)" stroke-width="1.5"></path><path d="M985.56 524.3L848.48 401.95" stroke="hsl(228.5, 77.2%, 51.5%)" stroke-width="1.5"></path><path d="M1126.64 107.24L1126.64 107.24" stroke="hsl(228.5, 77.2%, 51.5%)" stroke-width="1.5"></path><path d="M1126.64 107.24L1284.84 84.92" stroke="hsl(228.5, 77.2%, 51.5%)" stroke-width="1.5"></path><path d="M1126.64 107.24L1287.21 211.64" stroke="hsl(228.5, 77.2%, 51.5%)" stroke-width="1.5"></path><path d="M1126.64 107.24L1093 360.09" stroke="hsl(228.5, 77.2%, 51.5%)" stroke-width="1.5"></path><path d="M1126.64 107.24L1391.97 88.35" stroke="hsl(228.5, 77.2%, 51.5%)" stroke-width="1.5"></path><path d="M1284.84 84.92L1284.84 84.92" stroke="hsl(228.5, 77.2%, 51.5%)" stroke-width="1.5"></path><path d="M1284.84 84.92L1391.97 88.35" stroke="hsl(228.5, 77.2%, 51.5%)" stroke-width="1.5"></path><path d="M1284.84 84.92L1287.21 211.64" stroke="hsl(228.5, 77.2%, 51.5%)" stroke-width="1.5"></path><path d="M1284.84 84.92L1286.4 -110.14" stroke="hsl(228.5, 77.2%, 51.5%)" stroke-width="1.5"></path><path d="M1284.84 84.92L1433.77 243.61" stroke="hsl(228.5, 77.2%, 51.5%)" stroke-width="1.5"></path><path d="M1284.84 84.92L1437.09 -99.56" stroke="hsl(228.5, 77.2%, 51.5%)" stroke-width="1.5"></path><path d="M1437.09 -99.56L1437.09 -99.56" stroke="hsl(228.5, 77.2%, 51.5%)" stroke-width="1.5"></path><path d="M1437.09 -99.56L1286.4 -110.14" stroke="hsl(228.5, 77.2%, 51.5%)" stroke-width="1.5"></path><path d="M1437.09 -99.56L1595.87 -95.22" stroke="hsl(228.5, 77.2%, 51.5%)" stroke-width="1.5"></path><path d="M1437.09 -99.56L1391.97 88.35" stroke="hsl(228.5, 77.2%, 51.5%)" stroke-width="1.5"></path><path d="M1437.09 -99.56L1570.17 75.62" stroke="hsl(228.5, 77.2%, 51.5%)" stroke-width="1.5"></path><path d="M1437.09 -99.56L1433.77 243.61" stroke="hsl(228.5, 77.2%, 51.5%)" stroke-width="1.5"></path><path d="M1570.17 75.62L1570.17 75.62" stroke="hsl(228.5, 77.2%, 51.5%)" stroke-width="1.5"></path><path d="M1570.17 75.62L1595.87 -95.22" stroke="hsl(228.5, 77.2%, 51.5%)" stroke-width="1.5"></path><path d="M1570.17 75.62L1391.97 88.35" stroke="hsl(228.5, 77.2%, 51.5%)" stroke-width="1.5"></path><path d="M1570.17 75.62L1551.54 261.87" stroke="hsl(228.5, 77.2%, 51.5%)" stroke-width="1.5"></path><path d="M1570.17 75.62L1433.77 243.61" stroke="hsl(228.5, 77.2%, 51.5%)" stroke-width="1.5"></path><path d="M1554.29 342.71L1554.29 342.71" stroke="hsl(228.5, 77.2%, 51.5%)" stroke-width="1.5"></path><path d="M1554.29 342.71L1551.54 261.87" stroke="hsl(228.5, 77.2%, 51.5%)" stroke-width="1.5"></path><path d="M1554.29 342.71L1433.77 243.61" stroke="hsl(228.5, 77.2%, 51.5%)" stroke-width="1.5"></path><path d="M1554.29 342.71L1393.02 394.65" stroke="hsl(228.5, 77.2%, 51.5%)" stroke-width="1.5"></path><path d="M1554.29 342.71L1399.94 520.81" stroke="hsl(228.5, 77.2%, 51.5%)" stroke-width="1.5"></path><path d="M1606.96 680.78L1606.96 680.78" stroke="hsl(228.5, 77.2%, 51.5%)" stroke-width="1.5"></path><path d="M1606.96 680.78L1433.17 709.95" stroke="hsl(228.5, 77.2%, 51.5%)" stroke-width="1.5"></path><path d="M1606.96 680.78L1399.94 520.81" stroke="hsl(228.5, 77.2%, 51.5%)" stroke-width="1.5"></path><path d="M60.69 498.23L60.69 498.23" stroke="hsl(228.5, 77.2%, 51.5%)" stroke-width="1.5"></path><path d="M60.69 498.23L198.61 533.36" stroke="hsl(228.5, 77.2%, 51.5%)" stroke-width="1.5"></path><path d="M61.53 690.6L61.53 690.6" stroke="hsl(228.5, 77.2%, 51.5%)" stroke-width="1.5"></path><path d="M198.61 533.36L198.61 533.36" stroke="hsl(228.5, 77.2%, 51.5%)" stroke-width="1.5"></path><path d="M372.6 551.29L372.6 551.29" stroke="hsl(228.5, 77.2%, 51.5%)" stroke-width="1.5"></path><path d="M372.6 551.29L408.36 649.24" stroke="hsl(228.5, 77.2%, 51.5%)" stroke-width="1.5"></path><path d="M372.6 551.29L514.49 544.12" stroke="hsl(228.5, 77.2%, 51.5%)" stroke-width="1.5"></path><path d="M372.6 551.29L198.61 533.36" stroke="hsl(228.5, 77.2%, 51.5%)" stroke-width="1.5"></path><path d="M372.6 551.29L513.24 660.7" stroke="hsl(228.5, 77.2%, 51.5%)" stroke-width="1.5"></path><path d="M372.6 551.29L193.07 689.57" stroke="hsl(228.5, 77.2%, 51.5%)" stroke-width="1.5"></path><path d="M372.6 551.29L683.36 531.17" stroke="hsl(228.5, 77.2%, 51.5%)" stroke-width="1.5"></path><path d="M408.36 649.24L408.36 649.24" stroke="hsl(228.5, 77.2%, 51.5%)" stroke-width="1.5"></path><path d="M408.36 649.24L513.24 660.7" stroke="hsl(228.5, 77.2%, 51.5%)" stroke-width="1.5"></path><path d="M408.36 649.24L514.49 544.12" stroke="hsl(228.5, 77.2%, 51.5%)" stroke-width="1.5"></path><path d="M408.36 649.24L193.07 689.57" stroke="hsl(228.5, 77.2%, 51.5%)" stroke-width="1.5"></path><path d="M408.36 649.24L198.61 533.36" stroke="hsl(228.5, 77.2%, 51.5%)" stroke-width="1.5"></path><path d="M514.49 544.12L514.49 544.12" stroke="hsl(228.5, 77.2%, 51.5%)" stroke-width="1.5"></path><path d="M514.49 544.12L513.24 660.7" stroke="hsl(228.5, 77.2%, 51.5%)" stroke-width="1.5"></path><path d="M513.24 660.7L513.24 660.7" stroke="hsl(228.5, 77.2%, 51.5%)" stroke-width="1.5"></path><path d="M513.24 660.7L674.68 707.72" stroke="hsl(228.5, 77.2%, 51.5%)" stroke-width="1.5"></path><path d="M692.85 383.46L692.85 383.46" stroke="hsl(228.5, 77.2%, 51.5%)" stroke-width="1.5"></path><path d="M692.85 383.46L683.36 531.17" stroke="hsl(228.5, 77.2%, 51.5%)" stroke-width="1.5"></path><path d="M692.85 383.46L848.48 401.95" stroke="hsl(228.5, 77.2%, 51.5%)" stroke-width="1.5"></path><path d="M683.36 531.17L683.36 531.17" stroke="hsl(228.5, 77.2%, 51.5%)" stroke-width="1.5"></path><path d="M683.36 531.17L514.49 544.12" stroke="hsl(228.5, 77.2%, 51.5%)" stroke-width="1.5"></path><path d="M683.36 531.17L674.68 707.72" stroke="hsl(228.5, 77.2%, 51.5%)" stroke-width="1.5"></path><path d="M674.68 707.72L674.68 707.72" stroke="hsl(228.5, 77.2%, 51.5%)" stroke-width="1.5"></path><path d="M674.68 707.72L859.01 693.75" stroke="hsl(228.5, 77.2%, 51.5%)" stroke-width="1.5"></path><path d="M674.68 707.72L514.49 544.12" stroke="hsl(228.5, 77.2%, 51.5%)" stroke-width="1.5"></path><path d="M674.68 707.72L859.57 513.28" stroke="hsl(228.5, 77.2%, 51.5%)" stroke-width="1.5"></path><path d="M674.68 707.72L408.36 649.24" stroke="hsl(228.5, 77.2%, 51.5%)" stroke-width="1.5"></path><path d="M859.57 513.28L859.57 513.28" stroke="hsl(228.5, 77.2%, 51.5%)" stroke-width="1.5"></path><path d="M859.57 513.28L683.36 531.17" stroke="hsl(228.5, 77.2%, 51.5%)" stroke-width="1.5"></path><path d="M859.57 513.28L859.01 693.75" stroke="hsl(228.5, 77.2%, 51.5%)" stroke-width="1.5"></path><path d="M859.01 693.75L859.01 693.75" stroke="hsl(228.5, 77.2%, 51.5%)" stroke-width="1.5"></path><path d="M859.01 693.75L964.28 664.21" stroke="hsl(228.5, 77.2%, 51.5%)" stroke-width="1.5"></path><path d="M964.28 664.21L964.28 664.21" stroke="hsl(228.5, 77.2%, 51.5%)" stroke-width="1.5"></path><path d="M964.28 664.21L1094.64 679.52" stroke="hsl(228.5, 77.2%, 51.5%)" stroke-width="1.5"></path><path d="M1093 360.09L1093 360.09" stroke="hsl(228.5, 77.2%, 51.5%)" stroke-width="1.5"></path><path d="M1093 360.09L1272.85 349.25" stroke="hsl(228.5, 77.2%, 51.5%)" stroke-width="1.5"></path><path d="M1093 360.09L985.56 524.3" stroke="hsl(228.5, 77.2%, 51.5%)" stroke-width="1.5"></path><path d="M1094.64 679.52L1094.64 679.52" stroke="hsl(228.5, 77.2%, 51.5%)" stroke-width="1.5"></path><path d="M1094.64 679.52L1246.36 638.49" stroke="hsl(228.5, 77.2%, 51.5%)" stroke-width="1.5"></path><path d="M1094.64 679.52L985.56 524.3" stroke="hsl(228.5, 77.2%, 51.5%)" stroke-width="1.5"></path><path d="M1094.64 679.52L1246.76 508.16" stroke="hsl(228.5, 77.2%, 51.5%)" stroke-width="1.5"></path><path d="M1286.4 -110.14L1286.4 -110.14" stroke="hsl(228.5, 77.2%, 51.5%)" stroke-width="1.5"></path><path d="M1286.4 -110.14L1391.97 88.35" stroke="hsl(228.5, 77.2%, 51.5%)" stroke-width="1.5"></path><path d="M1286.4 -110.14L1126.64 107.24" stroke="hsl(228.5, 77.2%, 51.5%)" stroke-width="1.5"></path><path d="M1286.4 -110.14L1595.87 -95.22" stroke="hsl(228.5, 77.2%, 51.5%)" stroke-width="1.5"></path><path d="M1287.21 211.64L1287.21 211.64" stroke="hsl(228.5, 77.2%, 51.5%)" stroke-width="1.5"></path><path d="M1287.21 211.64L1272.85 349.25" stroke="hsl(228.5, 77.2%, 51.5%)" stroke-width="1.5"></path><path d="M1287.21 211.64L1433.77 243.61" stroke="hsl(228.5, 77.2%, 51.5%)" stroke-width="1.5"></path><path d="M1287.21 211.64L1391.97 88.35" stroke="hsl(228.5, 77.2%, 51.5%)" stroke-width="1.5"></path><path d="M1287.21 211.64L1393.02 394.65" stroke="hsl(228.5, 77.2%, 51.5%)" stroke-width="1.5"></path><path d="M1272.85 349.25L1272.85 349.25" stroke="hsl(228.5, 77.2%, 51.5%)" stroke-width="1.5"></path><path d="M1272.85 349.25L1393.02 394.65" stroke="hsl(228.5, 77.2%, 51.5%)" stroke-width="1.5"></path><path d="M1272.85 349.25L1246.76 508.16" stroke="hsl(228.5, 77.2%, 51.5%)" stroke-width="1.5"></path><path d="M1272.85 349.25L1433.77 243.61" stroke="hsl(228.5, 77.2%, 51.5%)" stroke-width="1.5"></path><path d="M1246.76 508.16L1246.76 508.16" stroke="hsl(228.5, 77.2%, 51.5%)" stroke-width="1.5"></path><path d="M1246.76 508.16L1246.36 638.49" stroke="hsl(228.5, 77.2%, 51.5%)" stroke-width="1.5"></path><path d="M1246.76 508.16L1399.94 520.81" stroke="hsl(228.5, 77.2%, 51.5%)" stroke-width="1.5"></path><path d="M1246.36 638.49L1246.36 638.49" stroke="hsl(228.5, 77.2%, 51.5%)" stroke-width="1.5"></path><path d="M1246.36 638.49L1399.94 520.81" stroke="hsl(228.5, 77.2%, 51.5%)" stroke-width="1.5"></path><path d="M1246.36 638.49L1433.17 709.95" stroke="hsl(228.5, 77.2%, 51.5%)" stroke-width="1.5"></path><path d="M1246.36 638.49L964.28 664.21" stroke="hsl(228.5, 77.2%, 51.5%)" stroke-width="1.5"></path><path d="M1391.97 88.35L1391.97 88.35" stroke="hsl(228.5, 77.2%, 51.5%)" stroke-width="1.5"></path><path d="M1391.97 88.35L1433.77 243.61" stroke="hsl(228.5, 77.2%, 51.5%)" stroke-width="1.5"></path><path d="M1433.77 243.61L1433.77 243.61" stroke="hsl(228.5, 77.2%, 51.5%)" stroke-width="1.5"></path><path d="M1433.77 243.61L1551.54 261.87" stroke="hsl(228.5, 77.2%, 51.5%)" stroke-width="1.5"></path><path d="M1433.77 243.61L1393.02 394.65" stroke="hsl(228.5, 77.2%, 51.5%)" stroke-width="1.5"></path><path d="M1393.02 394.65L1393.02 394.65" stroke="hsl(228.5, 77.2%, 51.5%)" stroke-width="1.5"></path><path d="M1393.02 394.65L1399.94 520.81" stroke="hsl(228.5, 77.2%, 51.5%)" stroke-width="1.5"></path><path d="M1393.02 394.65L1246.76 508.16" stroke="hsl(228.5, 77.2%, 51.5%)" stroke-width="1.5"></path><path d="M1399.94 520.81L1399.94 520.81" stroke="hsl(228.5, 77.2%, 51.5%)" stroke-width="1.5"></path><path d="M1399.94 520.81L1433.17 709.95" stroke="hsl(228.5, 77.2%, 51.5%)" stroke-width="1.5"></path><path d="M1399.94 520.81L1272.85 349.25" stroke="hsl(228.5, 77.2%, 51.5%)" stroke-width="1.5"></path><path d="M1433.17 709.95L1433.17 709.95" stroke="hsl(228.5, 77.2%, 51.5%)" stroke-width="1.5"></path><path d="M1433.17 709.95L1246.76 508.16" stroke="hsl(228.5, 77.2%, 51.5%)" stroke-width="1.5"></path><path d="M1433.17 709.95L1393.02 394.65" stroke="hsl(228.5, 77.2%, 51.5%)" stroke-width="1.5"></path><path d="M1595.87 -95.22L1595.87 -95.22" stroke="hsl(228.5, 77.2%, 51.5%)" stroke-width="1.5"></path><path d="M1595.87 -95.22L1391.97 88.35" stroke="hsl(228.5, 77.2%, 51.5%)" stroke-width="1.5"></path><path d="M1595.87 -95.22L1284.84 84.92" stroke="hsl(228.5, 77.2%, 51.5%)" stroke-width="1.5"></path><path d="M1595.87 -95.22L1551.54 261.87" stroke="hsl(228.5, 77.2%, 51.5%)" stroke-width="1.5"></path><path d="M1551.54 261.87L1551.54 261.87" stroke="hsl(228.5, 77.2%, 51.5%)" stroke-width="1.5"></path><path d="M1551.54 261.87L1393.02 394.65" stroke="hsl(228.5, 77.2%, 51.5%)" stroke-width="1.5"></path><path d="M1551.54 261.87L1391.97 88.35" stroke="hsl(228.5, 77.2%, 51.5%)" stroke-width="1.5"></path><path d="M1551.54 261.87L1287.21 211.64" stroke="hsl(228.5, 77.2%, 51.5%)" stroke-width="1.5"></path><circle r="25" cx="-40.66" cy="646.71" fill="url(#SvgjsRadialGradient1032)"></circle><circle r="25" cx="193.07" cy="689.57" fill="url(#SvgjsRadialGradient1032)"></circle><circle r="25" cx="848.48" cy="401.95" fill="url(#SvgjsRadialGradient1032)"></circle><circle r="25" cx="1005.16" cy="402.29" fill="url(#SvgjsRadialGradient1032)"></circle><circle r="25" cx="985.56" cy="524.3" fill="url(#SvgjsRadialGradient1032)"></circle><circle r="25" cx="1126.64" cy="107.24" fill="url(#SvgjsRadialGradient1032)"></circle><circle r="25" cx="1284.84" cy="84.92" fill="url(#SvgjsRadialGradient1032)"></circle><circle r="25" cx="1437.09" cy="-99.56" fill="url(#SvgjsRadialGradient1032)"></circle><circle r="25" cx="1570.17" cy="75.62" fill="url(#SvgjsRadialGradient1032)"></circle><circle r="25" cx="1554.29" cy="342.71" fill="url(#SvgjsRadialGradient1032)"></circle><circle r="25" cx="1606.96" cy="680.78" fill="url(#SvgjsRadialGradient1032)"></circle><circle r="5" cx="60.69" cy="498.23" fill="#8b9ad9"></circle><circle r="5" cx="61.53" cy="690.6" fill="#8b9ad9"></circle><circle r="5" cx="198.61" cy="533.36" fill="#8b9ad9"></circle><circle r="5" cx="372.6" cy="551.29" fill="#8b9ad9"></circle><circle r="5" cx="408.36" cy="649.24" fill="#8b9ad9"></circle><circle r="5" cx="514.49" cy="544.12" fill="#8b9ad9"></circle><circle r="5" cx="513.24" cy="660.7" fill="#8b9ad9"></circle><circle r="5" cx="692.85" cy="383.46" fill="#8b9ad9"></circle><circle r="5" cx="683.36" cy="531.17" fill="#8b9ad9"></circle><circle r="5" cx="674.68" cy="707.72" fill="#8b9ad9"></circle><circle r="5" cx="859.57" cy="513.28" fill="#8b9ad9"></circle><circle r="5" cx="859.01" cy="693.75" fill="#8b9ad9"></circle><circle r="5" cx="964.28" cy="664.21" fill="#8b9ad9"></circle><circle r="5" cx="1093" cy="360.09" fill="#8b9ad9"></circle><circle r="5" cx="1094.64" cy="679.52" fill="#8b9ad9"></circle><circle r="5" cx="1286.4" cy="-110.14" fill="#8b9ad9"></circle><circle r="5" cx="1287.21" cy="211.64" fill="#8b9ad9"></circle><circle r="5" cx="1272.85" cy="349.25" fill="#8b9ad9"></circle><circle r="5" cx="1246.76" cy="508.16" fill="#8b9ad9"></circle><circle r="5" cx="1246.36" cy="638.49" fill="#8b9ad9"></circle><circle r="5" cx="1391.97" cy="88.35" fill="#8b9ad9"></circle><circle r="5" cx="1433.77" cy="243.61" fill="#8b9ad9"></circle><circle r="5" cx="1393.02" cy="394.65" fill="#8b9ad9"></circle><circle r="5" cx="1399.94" cy="520.81" fill="#8b9ad9"></circle><circle r="5" cx="1433.17" cy="709.95" fill="#8b9ad9"></circle><circle r="5" cx="1595.87" cy="-95.22" fill="#8b9ad9"></circle><circle r="5" cx="1551.54" cy="261.87" fill="#8b9ad9"></circle></g><defs><mask id="SvgjsMask1031"><rect width="1440" height="560" fill="#ffffff"></rect></mask><radialGradient id="SvgjsRadialGradient1032"><stop stop-color="#ffffff" offset="0.1"></stop><stop stop-color="#1735b3" offset="0.2"></stop><stop stop-color="rgba(23, 53, 179, 0)" offset="1"></stop></radialGradient></defs></svg>